<?xml version="1.0" encoding="UTF-8"?>
<!DOCTYPE svg PUBLIC "-//W3C//DTD SVG 1.1//EN" "http://www.w3.org/Graphics/SVG/1.1/DTD/svg11.dtd">
<!-- Creator: CorelDRAW -->
<svg xmlns="http://www.w3.org/2000/svg" xml:space="preserve" width="30.3092mm" height="30.3092mm" version="1.1" style="shape-rendering:geometricPrecision; text-rendering:geometricPrecision; image-rendering:optimizeQuality; fill-rule:evenodd; clip-rule:evenodd"
viewBox="0 0 250.93 250.93"
 xmlns:xlink="http://www.w3.org/1999/xlink"
 xmlns:xodm="http://www.corel.com/coreldraw/odm/2003">
 <defs>
  <style type="text/css">
   <![CDATA[
    .str0 {stroke:#A56C33;stroke-width:4.38;stroke-miterlimit:22.9256}
    .fil0 {fill:none}
    .fil3 {fill:#F6CD0C}
    .fil2 {fill:#E7393C}
    .fil1 {fill:#A56C33}
    .fil4 {fill:#3B9A43}
   ]]>
  </style>
 </defs>
 <g id="圖層_x0020_1">
  <metadata id="CorelCorpID_0Corel-Layer"/>
  <circle class="fil0 str0" cx="125.47" cy="125.47" r="123.27"/>
  <path class="fil1" d="M113.98 67.5c29.97,38.74 38.24,121.12 38.35,171.7 -8.06,2.81 -17.58,4.25 -30.17,4.78 -11.71,0.5 -23.86,-1.35 -35.16,-4.78 47.97,-57.94 34.34,-118.05 26.99,-171.7z"/>
  <path class="fil1" d="M124.31 161.81c0.14,-5.22 2.16,-12.79 2.3,-18.01 -19.71,-1.08 -41.23,-11.5 -39.9,-32.72 -12.38,28.23 28.05,47.54 37.61,50.73z"/>
  <path class="fil2" d="M154.71 102.99c3.55,-6.48 10.41,-5.1 14.46,2.16 4.27,7.67 -0.31,19.59 -2.78,20.96 -2.47,1.38 -15.02,-0.99 -19.29,-8.66 -4.05,-7.26 -1.61,-13.83 5.76,-13.44 1.06,2.52 1.87,5.17 3.47,7.39 1.69,2.35 3.39,4.69 5.62,6.74 -0.57,-2.97 -1.67,-5.65 -2.78,-8.32 -1.04,-2.53 -2.88,-4.61 -4.46,-6.84z"/>
  <path class="fil3" d="M126.35 23.14c-0.02,-5.02 -3.79,-11.33 -4.47,-11.41 -0.68,-0.08 -5.81,5.18 -6.99,10.06 -4.78,-1.53 -11.94,0.1 -12.23,0.73 -0.29,0.63 3.13,7.13 7.4,9.76 -2.93,4.07 -3.59,11.39 -3.09,11.85 0.51,0.47 7.75,-0.78 11.57,-4.03 2.97,4.05 9.72,6.94 10.32,6.6 0.6,-0.34 1.66,-7.61 -0.25,-12.25 4.77,-1.57 9.6,-7.1 9.47,-7.78 -0.13,-0.68 -6.72,-3.92 -11.73,-3.54zm-6.2 3.78c1.92,0.23 3.29,1.97 3.07,3.89 -0.23,1.92 -1.97,3.29 -3.89,3.07 -1.92,-0.23 -3.29,-1.97 -3.07,-3.89 0.23,-1.92 1.97,-3.29 3.89,-3.07z"/>
  <path class="fil4" d="M156.02 145.29c5.77,-0.23 11.96,1.64 16.57,7.89 4.6,6.24 4.52,12.65 2.64,18.16 -5.77,0.23 -11.96,-1.64 -16.57,-7.89 -4.6,-6.24 -4.56,-12.71 -2.64,-18.16z"/>
  <path class="fil4" d="M180.3 140.31c6.18,-2.67 13.7,-3.23 21.32,1.62 7.63,4.86 10.22,11.87 10.49,18.64 -6.18,2.67 -13.7,3.23 -21.32,-1.63 -7.63,-4.86 -10.3,-11.91 -10.49,-18.64z"/>
  <path class="fil2" d="M192.35 90.26c0.06,-6.15 5.64,-7.83 11.46,-4.08 6.14,3.95 7.45,14.5 6.18,16.48 -1.27,1.98 -11.41,5.16 -17.56,1.21 -5.82,-3.74 -6.61,-9.52 -1.04,-12.12 1.76,1.43 3.4,3.06 5.44,4.07 2.16,1.06 4.33,2.12 6.77,2.74 -1.58,-1.96 -3.44,-3.49 -5.3,-5.02 -1.76,-1.45 -3.92,-2.26 -5.96,-3.27z"/>
  <path class="fil2" d="M74.76 103.75c6.9,-0.51 9.31,5.59 5.66,12.47 -3.85,7.26 -15.55,9.73 -17.89,8.49 -2.34,-1.24 -6.87,-12.31 -3.02,-19.57 3.65,-6.88 10.05,-8.31 13.5,-2.31 -1.44,2.11 -3.11,4.1 -4.04,6.49 -0.98,2.53 -1.96,5.05 -2.44,7.85 2.05,-1.96 3.59,-4.19 5.13,-6.42 1.45,-2.11 2.16,-4.61 3.1,-6.99z"/>
  <path class="fil2" d="M58 87.25c5.77,1.77 5.8,7.5 0.65,11.93 -5.43,4.69 -15.73,2.98 -17.24,1.23 -1.51,-1.75 -1.68,-12.19 3.76,-16.87 5.15,-4.44 10.8,-3.57 11.7,2.4 -1.84,1.26 -3.83,2.35 -5.34,3.99 -1.6,1.74 -3.2,3.48 -4.47,5.61 2.29,-0.94 4.25,-2.27 6.2,-3.59 1.85,-1.25 3.22,-3.06 4.74,-4.7z"/>
  <path class="fil2" d="M105.49 110.04c5.31,-2.43 9.01,1.7 8.14,8.21 -0.92,6.88 -9.47,12.27 -11.68,11.97 -2.21,-0.3 -9.05,-7.74 -8.13,-14.62 0.87,-6.52 5.52,-9.53 10.01,-5.79 -0.52,2.1 -1.26,4.16 -1.3,6.32 -0.04,2.29 -0.08,4.58 0.37,6.93 1.05,-2.15 1.61,-4.37 2.18,-6.59 0.53,-2.09 0.36,-4.28 0.41,-6.44z"/>
  <path class="fil4" d="M200.03 115.64c4.62,-3.85 10.94,-6.24 18.71,-3.99 7.77,2.24 11.77,7.6 13.71,13.34 -4.62,3.85 -10.94,6.24 -18.71,3.99 -7.77,-2.24 -11.85,-7.62 -13.71,-13.34z"/>
  <path class="fil4" d="M104.08 153.59c2.71,3.73 4.22,8.68 2.11,14.52 -2.11,5.83 -6.41,8.62 -10.9,9.82 -2.71,-3.73 -4.22,-8.68 -2.11,-14.52 2.11,-5.83 6.43,-8.68 10.9,-9.82z"/>
  <path class="fil4" d="M54.29 141.16c0.43,5.28 -1.05,11.03 -6.6,15.49 -5.55,4.46 -11.43,4.63 -16.54,3.11 -0.43,-5.28 1.05,-11.03 6.6,-15.49 5.55,-4.46 11.48,-4.67 16.54,-3.11z"/>
  <path class="fil3" d="M158.14 31.44c-1.82,-4.38 -7.38,-8.54 -8.01,-8.37 -0.63,0.18 -3.22,6.62 -2.5,11.31 -4.73,0.38 -10.4,4.38 -10.43,5.03 -0.03,0.65 5.3,5.1 9.98,5.87 -1.1,4.62 0.95,11.25 1.56,11.47 0.61,0.23 6.49,-3.46 8.67,-7.68 4.05,2.47 10.99,2.57 11.4,2.06 0.4,-0.51 -1.29,-7.24 -4.63,-10.62 3.6,-3.09 5.84,-9.66 5.48,-10.2 -0.36,-0.54 -7.29,-1.02 -11.53,1.12zm-4.07 5.54c1.76,-0.49 3.59,0.53 4.08,2.29 0.49,1.76 -0.53,3.59 -2.29,4.08 -1.76,0.49 -3.59,-0.53 -4.08,-2.29 -0.49,-1.76 0.53,-3.59 2.29,-4.08z"/>
  <path class="fil3" d="M190.7 48.09c1.3,-3.31 0.48,-8.44 0.05,-8.67 -0.43,-0.23 -5.18,1.89 -7.23,4.78 -2.74,-2.26 -7.88,-3.06 -8.23,-2.72 -0.35,0.34 0.19,5.51 2.31,8.36 -3,1.91 -5.35,6.55 -5.14,6.99 0.21,0.44 5.3,1.52 8.66,0.38 0.89,3.44 4.57,7.11 5.06,7.04 0.48,-0.06 3.08,-4.57 3.04,-8.12 3.55,0.22 8.17,-2.15 8.26,-2.63 0.09,-0.48 -3.39,-4.34 -6.78,-5.4zm-5.07 0.86c1.2,0.65 1.65,2.16 1,3.36 -0.65,1.2 -2.16,1.65 -3.36,1 -1.2,-0.65 -1.65,-2.16 -1,-3.36 0.65,-1.2 2.16,-1.65 3.36,-1z"/>
  <path class="fil3" d="M209.09 62.77c0.21,-3.22 -1.94,-7.43 -2.37,-7.51 -0.44,-0.08 -3.95,3.07 -4.92,6.15 -3,-1.19 -7.66,-0.45 -7.88,-0.07 -0.21,0.39 1.7,4.71 4.32,6.58 -2.06,2.49 -2.8,7.15 -2.5,7.47 0.3,0.32 5,-0.16 7.6,-2.08 1.73,2.73 5.93,4.87 6.33,4.68 0.4,-0.19 1.39,-4.81 0.37,-7.87 3.13,-0.8 6.47,-4.14 6.41,-4.58 -0.06,-0.44 -4.14,-2.81 -7.37,-2.78zm-4.14 2.16c1.22,0.23 2.03,1.4 1.8,2.63 -0.23,1.22 -1.4,2.03 -2.63,1.8 -1.22,-0.23 -2.03,-1.4 -1.8,-2.63 0.23,-1.22 1.4,-2.03 2.63,-1.8z"/>
  <path class="fil3" d="M92.84 31.97c-0.71,-4.69 -5.1,-10.07 -5.75,-10.05 -0.65,0.02 -4.72,5.65 -5.15,10.37 -4.68,-0.77 -11.15,1.74 -11.34,2.37 -0.18,0.63 3.91,6.23 8.27,8.11 -2.18,4.21 -1.79,11.15 -1.25,11.51 0.54,0.37 7.14,-1.79 10.26,-5.36 3.33,3.38 10.05,5.15 10.56,4.75 0.51,-0.4 0.5,-7.34 -1.93,-11.42 4.24,-2.13 8,-7.96 7.78,-8.58 -0.22,-0.61 -6.83,-2.74 -11.45,-1.7zm-5.28 4.39c1.83,-0.05 3.35,1.38 3.41,3.21 0.05,1.83 -1.38,3.35 -3.21,3.41 -1.83,0.05 -3.35,-1.38 -3.41,-3.21 -0.05,-1.83 1.38,-3.35 3.21,-3.41z"/>
  <path class="fil3" d="M60.34 44.2c-1.2,-3.34 -5.21,-6.66 -5.68,-6.55 -0.48,0.11 -2.65,4.83 -2.28,8.37 -3.55,0.11 -7.94,2.89 -7.99,3.38 -0.04,0.49 3.78,4.01 7.25,4.76 -0.99,3.41 0.3,8.45 0.75,8.64 0.45,0.19 4.98,-2.35 6.76,-5.43 2.94,2 8.13,2.33 8.45,1.96 0.32,-0.37 -0.7,-5.47 -3.07,-8.11 2.81,-2.18 4.72,-7.01 4.47,-7.43 -0.25,-0.42 -5.41,-1.03 -8.66,0.41zm-3.24 3.99c1.33,-0.3 2.66,0.53 2.97,1.87 0.3,1.33 -0.53,2.66 -1.87,2.97 -1.33,0.3 -2.66,-0.53 -2.97,-1.87 -0.3,-1.33 0.53,-2.66 1.87,-2.97z"/>
  <path class="fil3" d="M35.46 61.23c-1.28,-2.96 -5.1,-5.74 -5.52,-5.62 -0.43,0.13 -2.13,4.53 -1.6,7.71 -3.21,0.3 -7.04,3.07 -7.05,3.52 -0.01,0.44 3.65,3.42 6.84,3.9 -0.71,3.15 0.75,7.64 1.17,7.79 0.42,0.15 4.38,-2.41 5.83,-5.3 2.78,1.65 7.5,1.65 7.77,1.3 0.27,-0.35 -0.94,-4.92 -3.24,-7.18 2.42,-2.13 3.89,-6.62 3.63,-6.99 -0.25,-0.37 -4.96,-0.62 -7.83,0.86zm-2.71 3.8c1.19,-0.35 2.44,0.33 2.79,1.52 0.35,1.19 -0.33,2.44 -1.52,2.79 -1.19,0.35 -2.44,-0.33 -2.79,-1.52 -0.35,-1.19 0.33,-2.44 1.52,-2.79z"/>
  <path class="fil3" d="M81.43 64.7c-1.95,-3.2 -6.79,-5.79 -7.26,-5.57 -0.47,0.21 -1.72,5.56 -0.59,9.14 -3.65,0.87 -7.6,4.67 -7.54,5.19 0.06,0.51 4.75,3.35 8.5,3.39 -0.3,3.74 2.1,8.67 2.6,8.78 0.51,0.1 4.66,-3.49 5.85,-7.04 3.46,1.45 8.9,0.69 9.15,0.24 0.25,-0.45 -1.88,-5.51 -4.89,-7.74 2.44,-2.85 3.4,-8.25 3.05,-8.63 -0.35,-0.38 -5.82,0.08 -8.87,2.26zm-2.51 4.81c1.32,-0.6 2.87,-0.01 3.46,1.3 0.6,1.32 0.01,2.87 -1.3,3.46 -1.32,0.6 -2.87,0.01 -3.46,-1.3 -0.6,-1.32 -0.01,-2.87 1.3,-3.46z"/>
  <path class="fil3" d="M133.51 57.42c-3.86,-1.32 -9.71,-0.11 -9.95,0.39 -0.24,0.5 2.43,5.84 5.86,8.05 -2.45,3.26 -3.11,9.2 -2.7,9.59 0.4,0.39 6.31,-0.51 9.47,-3.08 2.35,3.34 7.79,5.8 8.28,5.53 0.49,-0.26 1.47,-6.16 -0.01,-9.96 3.9,-1.2 7.92,-5.61 7.82,-6.17 -0.1,-0.55 -5.4,-3.3 -9.47,-3.07 0.06,-4.08 -2.89,-9.27 -3.45,-9.34 -0.55,-0.08 -4.81,4.12 -5.85,8.06zm1.25 5.77c0.69,-1.41 2.39,-2.01 3.8,-1.32 1.41,0.69 2.01,2.39 1.32,3.8 -0.69,1.41 -2.39,2.01 -3.8,1.32 -1.41,-0.69 -2.01,-2.39 -1.32,-3.8z"/>
  <path class="fil4" d="M49.93 115.71c-3.96,5.27 -10.1,9.4 -18.95,8.97 -8.86,-0.43 -14.47,-5.14 -17.98,-10.78 3.96,-5.27 10.1,-9.4 18.95,-8.97 8.86,0.43 14.56,5.15 17.98,10.78z"/>
  <path class="fil4" d="M45.6 131.53c-1.01,3.07 -3.22,5.96 -7.4,7.15 -4.19,1.19 -7.54,-0.12 -10.06,-2.19 1.01,-3.07 3.22,-5.96 7.4,-7.15 4.19,-1.19 7.58,0.1 10.06,2.19z"/>
  <path class="fil4" d="M82.83 142.29c1.71,6.39 1.18,13.78 -4.64,20.5 -5.82,6.72 -13,8.24 -19.62,7.52 -1.71,-6.39 -1.18,-13.78 4.64,-20.5 5.82,-6.72 13.06,-8.3 19.62,-7.53z"/>
  <path class="fil4" d="M35.86 91.23c-3.22,3.5 -7.92,6.03 -14.25,5.09 -6.33,-0.94 -10.03,-4.72 -12.15,-9.02 3.22,-3.5 7.92,-6.03 14.25,-5.09 6.33,0.94 10.09,4.73 12.15,9.02z"/>
  <path class="fil4" d="M64.03 79.27c-2.99,1.19 -6.6,1.35 -10.17,-1.09 -3.58,-2.43 -4.72,-5.82 -4.74,-9.06 2.99,-1.19 6.6,-1.35 10.17,1.09 3.58,2.43 4.75,5.84 4.74,9.06z"/>
  <path class="fil4" d="M109.43 99.01c-3.83,3.75 -9.26,6.32 -16.33,4.89 -7.06,-1.43 -11,-5.9 -13.13,-10.86 3.83,-3.75 9.26,-6.33 16.32,-4.89 7.06,1.43 11.07,5.91 13.14,10.86z"/>
  <path class="fil4" d="M109.8 75.51c-4.1,0.49 -8.63,-0.51 -12.27,-4.7 -3.64,-4.2 -3.93,-8.78 -2.9,-12.81 4.1,-0.49 8.63,0.5 12.27,4.7 3.64,4.2 3.97,8.82 2.9,12.81z"/>
  <path class="fil4" d="M113.92 63.22c-2.53,-2.68 -4.22,-6.44 -3.15,-11.27 1.07,-4.83 4.19,-7.47 7.62,-8.88 2.53,2.67 4.22,6.44 3.15,11.27 -1.07,4.83 -4.2,7.52 -7.62,8.88z"/>
  <path class="fil4" d="M232.02 105.39c-2.09,2.48 -5.21,4.33 -9.53,3.88 -4.33,-0.46 -6.95,-2.92 -8.52,-5.78 2.09,-2.48 5.21,-4.33 9.53,-3.88 4.33,0.46 6.99,2.92 8.52,5.78z"/>
  <path class="fil4" d="M190.35 68.05c-0.82,7.27 -4.36,14.67 -13.07,19.24 -8.71,4.57 -16.73,3.22 -23.26,-0.19 0.82,-7.27 4.36,-14.67 13.07,-19.24 8.71,-4.57 16.81,-3.27 23.26,0.19z"/>
  <path class="fil4" d="M164.86 52.88c1.14,2.88 1.28,6.35 -1.06,9.78 -2.35,3.43 -5.61,4.53 -8.73,4.55 -1.14,-2.88 -1.28,-6.35 1.06,-9.78 2.35,-3.44 5.63,-4.56 8.73,-4.55z"/>
  <path class="fil4" d="M153.71 95.58c-1.45,2.97 -4.08,5.59 -8.49,6.22 -4.4,0.63 -7.62,-1.16 -9.88,-3.6 1.45,-2.97 4.08,-5.59 8.49,-6.22 4.4,-0.63 7.66,1.15 9.88,3.6z"/>
  <path class="fil4" d="M236.93 76.16c-1.36,4.67 -4.51,9.12 -10.73,11.13 -6.22,2.01 -11.32,0.23 -15.21,-2.74 1.36,-4.67 4.51,-9.12 10.73,-11.13 6.22,-2.01 11.38,-0.25 15.21,2.74z"/>
  <path class="fil1" d="M98.79 143.84c-1.92,-2.85 -6.49,-9.25 -8.41,-12.1 -14.23,-3.61 -34.46,-1.25 -42.95,4.86 12.56,-4.45 42.35,-0.19 51.36,7.24z"/>
  <path class="fil1" d="M137.77 142.11c-0.14,-5.22 0.04,-8.14 -0.09,-13.36 32.71,6.78 48.16,-2.47 56.52,-17.66 -3.9,21.57 -16.61,31.58 -56.42,31.03z"/>
  <path class="fil4" d="M213.39 138.21c-2.41,1.48 -5.5,2.16 -8.96,0.6 -3.46,-1.56 -4.96,-4.32 -5.47,-7.12 2.41,-1.48 5.5,-2.16 8.96,-0.6 3.46,1.56 4.99,4.33 5.47,7.12z"/>
  <path class="fil4" d="M189.06 105.6c-0.72,2.73 -2.48,5.36 -6.06,6.63 -3.58,1.26 -6.57,0.31 -8.88,-1.36 0.72,-2.73 2.48,-5.36 6.06,-6.63 3.58,-1.26 6.6,-0.32 8.88,1.36z"/>
  <path class="fil1" d="M120.41 95.18c0.97,-3 1.43,-7.95 -0.49,-10.8 -5.19,-5.92 -19.44,-6.41 -27.59,-0.11 19.94,-4.71 25.74,7.09 28.08,10.91z"/>
  <path class="fil1" d="M127.75 98.97c-0.97,-3 -4.97,-7.05 -3.05,-9.9 1.88,-6.29 11.79,-10.12 21.98,-4.19 -12.93,-4.48 -17.64,8.08 -18.92,14.09z"/>
  <path class="fil1" d="M150.57 197.34c1.33,22.13 1.66,33.52 1.72,48.48 -8.64,1.92 -17.61,2.93 -26.82,2.93 -14.35,0 -28.13,-2.45 -40.94,-6.96 5.12,-5.87 18.04,-18.57 29.4,-50.46 3.07,-11.35 33.92,-8.44 36.65,6.02z"/>
 </g>
</svg>
